<svg viewBox="0 0 33.3333 21.6667" xmlns="http://www.w3.org/2000/svg" xmlns:xlink="http://www.w3.org/1999/xlink" width="33.333328" height="21.666672" fill="none" customFrame="#000000">
	<path id="Vector" d="M16.6666 1.52588e-05C7.46664 1.52588e-05 -3.05176e-05 3.73335 -3.05176e-05 8.33335C-3.05176e-05 12.0667 4.89997 15.2167 11.6666 16.2833L11.6666 21.6667L18.3333 15L11.6666 8.33335L11.6666 12.8833C6.41664 11.95 3.3333 9.71668 3.3333 8.33335C3.3333 6.56668 8.39997 3.33335 16.6666 3.33335C24.9333 3.33335 30 6.56668 30 8.33335C30 9.55001 27.5666 11.4833 23.3333 12.55L23.3333 15.9667C29.2166 14.6833 33.3333 11.75 33.3333 8.33335C33.3333 3.73335 25.8666 1.52588e-05 16.6666 1.52588e-05Z" fill="rgb(255,255,255)" fill-rule="nonzero" />
</svg>
