<svg viewBox="0 0 16.8873 19.8916" xmlns="http://www.w3.org/2000/svg" xmlns:xlink="http://www.w3.org/1999/xlink" width="16.887299" height="19.891602" fill="none" customFrame="#000000">
	<path id="Vector" d="M16.8872 5.53168C16.8815 5.50531 16.8815 5.47804 16.8872 5.45168C16.8824 5.4286 16.8824 5.40476 16.8872 5.38168L16.8872 5.29168L16.8272 5.14168C16.8028 5.10075 16.7725 5.06367 16.7372 5.03168L16.6472 4.95168L16.5972 4.95168L12.6572 2.46168L8.93722 0.161678C8.85116 0.0934074 8.75268 0.0424677 8.64722 0.0116774L8.56722 0.0116774C8.47784 -0.00324143 8.38661 -0.00324143 8.29722 0.0116774L8.19722 0.0116774C8.08107 0.0373696 7.9697 0.0812434 7.86722 0.141678L0.397224 4.79168L0.307224 4.86168L0.217224 4.94168L0.117224 5.01168L0.067224 5.07168L0.0072238 5.22168L0.0072238 5.31168L0.0072238 5.37168C-0.00248931 5.43799 -0.00248931 5.50536 0.0072238 5.57168L0.0072238 14.3017C0.00688372 14.4716 0.0498599 14.6388 0.132095 14.7876C0.21433 14.9363 0.333111 15.0616 0.477224 15.1517L7.97722 19.7917L8.12722 19.8517L8.20722 19.8517C8.3764 19.9053 8.55804 19.9053 8.72722 19.8517L8.80722 19.8517L8.95722 19.7917L16.3972 15.2217C16.5413 15.1316 16.6601 15.0063 16.7424 14.8576C16.8246 14.7088 16.8676 14.5416 16.8672 14.3717L16.8672 5.64168C16.8672 5.64168 16.8872 5.57168 16.8872 5.53168ZM8.39722 2.18168L10.1772 3.28168L4.58722 6.74168L2.79722 5.64168L8.39722 2.18168ZM7.39722 17.1817L1.89722 13.8217L1.89722 7.43168L7.39722 10.8317L7.39722 17.1817ZM8.39722 9.07168L6.48722 7.92168L12.0772 4.45168L13.9972 5.64168L8.39722 9.07168ZM14.8972 13.7917L9.39722 17.2117L9.39722 10.8317L14.8972 7.43168L14.8972 13.7917Z" fill="rgb(255,255,255)" fill-rule="nonzero" />
</svg>
