<svg viewBox="0 0 16 19.9937" xmlns="http://www.w3.org/2000/svg" xmlns:xlink="http://www.w3.org/1999/xlink" width="16.000011" height="19.993652" fill="none" customFrame="#000000">
	<path id="Vector" d="M15.63 1.64884C15.5138 1.55487 15.3781 1.48812 15.2327 1.45351C15.0873 1.4189 14.9361 1.4173 14.79 1.44884C13.7214 1.67279 12.6184 1.67564 11.5486 1.45723C10.4789 1.23881 9.46526 0.803758 8.57001 0.178844C8.40262 0.0627163 8.20374 0.000488281 8.00001 0.000488281C7.79628 0.000488281 7.59741 0.0627163 7.43001 0.178844C6.53477 0.803758 5.52109 1.23881 4.45138 1.45723C3.38167 1.67564 2.27858 1.67279 1.21001 1.44884C1.06395 1.4173 0.912677 1.4189 0.767312 1.45351C0.621947 1.48812 0.486187 1.55487 0.370011 1.64884C0.253991 1.74296 0.160532 1.86188 0.0965038 1.99686C0.0324752 2.13184 -0.000496468 2.27945 1.15035e-05 2.42884L1.15035e-05 9.87884C-0.000877533 11.3126 0.340785 12.7258 0.996546 14.0008C1.65231 15.2758 2.60319 16.3757 3.77001 17.2088L7.42001 19.8088C7.58937 19.9294 7.79211 19.9942 8.00001 19.9942C8.20792 19.9942 8.41065 19.9294 8.58001 19.8088L12.23 17.2088C13.3968 16.3757 14.3477 15.2758 15.0035 14.0008C15.6592 12.7258 16.0009 11.3126 16 9.87884L16 2.42884C16.0005 2.27945 15.9675 2.13184 15.9035 1.99686C15.8395 1.86188 15.746 1.74296 15.63 1.64884ZM14 9.87884C14.0008 10.9936 13.7353 12.0924 13.2257 13.0839C12.716 14.0753 11.977 14.9307 11.07 15.5788L8.00001 17.7688L4.93001 15.5788C4.02305 14.9307 3.284 14.0753 2.77436 13.0839C2.26473 12.0924 1.99924 10.9936 2.00001 9.87884L2.00001 3.57884C4.09644 3.75828 6.19605 3.27187 8.00001 2.18884C9.80397 3.27187 11.9036 3.75828 14 3.57884L14 9.87884ZM9.54001 7.58884L6.85001 10.2888L5.96001 9.38884C5.77171 9.20054 5.51631 9.09475 5.25001 9.09475C4.98371 9.09475 4.72832 9.20054 4.54001 9.38884C4.35171 9.57715 4.24592 9.83254 4.24592 10.0988C4.24592 10.3651 4.35171 10.6205 4.54001 10.8088L6.14001 12.4088C6.23298 12.5026 6.34358 12.577 6.46544 12.6277C6.58729 12.6785 6.718 12.7046 6.85001 12.7046C6.98202 12.7046 7.11273 12.6785 7.23459 12.6277C7.35645 12.577 7.46705 12.5026 7.56001 12.4088L11 8.99884C11.1883 8.81054 11.2941 8.55515 11.2941 8.28884C11.2941 8.02254 11.1883 7.76715 11 7.57884C10.8117 7.39054 10.5563 7.28475 10.29 7.28475C10.0237 7.28475 9.76832 7.39054 9.58001 7.57884L9.54001 7.58884Z" fill="rgb(255,255,255)" fill-rule="nonzero" />
</svg>
